<svg id="e9d1e732-657e-4229-a6de-0ff7734d1edc" data-name="Layer 2" xmlns="http://www.w3.org/2000/svg" viewBox="0 0 160.19 281.19"><defs><style>.f6d14dae-83d6-4f59-86b1-e6753d486d94{fill:#fff;}</style></defs><path class="f6d14dae-83d6-4f59-86b1-e6753d486d94" d="M324.47,186.6,194.28,111.44a15,15,0,0,0-22.5,13V274.75a15,15,0,0,0,22.5,13l130.19-75.16A15,15,0,0,0,324.47,186.6Z" transform="translate(-171.78 -109.41)"/><path class="f6d14dae-83d6-4f59-86b1-e6753d486d94" d="M324.47,287.42,194.28,212.26a15,15,0,0,0-22.5,13V375.57a15,15,0,0,0,22.5,13L324.47,313.4A15,15,0,0,0,324.47,287.42Z" transform="translate(-171.78 -109.41)"/></svg>